HIERARCHY
ROOT Hips
{
	OFFSET 0.00 0.00 0.00
	CHANNELS 6 Xposition Yposition Zposition Xrotation Yrotation Zrotation
	JOINT Spine
	{
		OFFSET 0.00000 7.53995 0.00000
		CHANNELS 3 Xrotation Yrotation Zrotation
		JOINT Head
		{
			OFFSET 0.00000 15.09381 0.00000
			CHANNELS 3 Xrotation Yrotation Zrotation
			End Site
			{
				OFFSET 0.00000 4.52755 0.00000
			}
		}
		JOINT LeftShoulder
		{
			OFFSET 0.00000 9.73893 0.00000
			CHANNELS 3 Xrotation Yrotation Zrotation
			JOINT LeftArm
			{
				OFFSET 7.08401 0.00000 0.00000
				CHANNELS 3 Xrotation Yrotation Zrotation
				JOINT LeftForeArm
				{
					OFFSET 10.25932 0.00000 0.00000
					CHANNELS 3 Yrotation Zrotation Xrotation
					JOINT LeftHand
					{
						OFFSET 9.89698 0.00000 0.00000
						CHANNELS 3 Xrotation Yrotation Zrotation
						JOINT LeftHandThumb1
						{
							OFFSET 0.00000 0.00000 0.00000
							CHANNELS 3 Xrotation Zrotation Yrotation
							End Site
							{
								OFFSET 0.00000 0.00000 3.93700
							}
						}
						End Site
						{
							OFFSET 3.93700 0.00000 0.00000
						}
					}
				}
			}
		}
		JOINT RightShoulder
		{
			OFFSET 0.00000 9.73893 0.00000
			CHANNELS 3 Xrotation Yrotation Zrotation
			JOINT RightArm
			{
				OFFSET -7.08401 0.00000 0.00000
				CHANNELS 3 Xrotation Yrotation Zrotation
				JOINT RightForeArm
				{
					OFFSET -10.25932 0.00000 0.00000
					CHANNELS 3 Yrotation Zrotation Xrotation
					JOINT RightHand
					{
						OFFSET -9.89698 0.00000 0.00000
						CHANNELS 3 Xrotation Yrotation Zrotation
						JOINT RightHandThumb1
						{
							OFFSET 0.00000 0.00000 0.00000
							CHANNELS 3 Xrotation Zrotation Yrotation
							End Site
							{
								OFFSET 0.00000 0.00000 3.93700
							}
						}
						End Site
						{
							OFFSET -3.93700 0.00000 0.00000
						}
					}
				}
			}
		}
	}
	JOINT LeftUpLeg
	{
		OFFSET 3.34548 0.00000 0.00000
		CHANNELS 3 Xrotation Yrotation Zrotation
		JOINT LeftLeg
		{
			OFFSET 0.00000 -19.11473 0.00000
			CHANNELS 3 Xrotation Yrotation Zrotation
			JOINT LeftFoot
			{
				OFFSET 0.00000 -16.04560 0.00000
				CHANNELS 3 Xrotation Yrotation Zrotation
				JOINT LeftToeBase
				{
					OFFSET 0.00000 -1.43467 5.35428
					CHANNELS 3 Xrotation Yrotation Zrotation
					End Site
					{
						OFFSET 0.00000 0.00000 2.95275
					}
				}
			}
		}
	}
	JOINT RightUpLeg
	{
		OFFSET -3.34548 0.00000 0.00000
		CHANNELS 3 Xrotation Yrotation Zrotation
		JOINT RightLeg
		{
			OFFSET 0.00000 -19.11473 0.00000
			CHANNELS 3 Xrotation Yrotation Zrotation
			JOINT RightFoot
			{
				OFFSET 0.00000 -16.04560 0.00000
				CHANNELS 3 Xrotation Yrotation Zrotation
				JOINT RightToeBase
				{
					OFFSET 0.00000 -1.43467 5.35428
					CHANNELS 3 Xrotation Yrotation Zrotation
					End Site
					{
						OFFSET 0.00000 0.00000 2.95275
					}
				}
			}
		}
	}
}
MOTION
Frames:	20
Frame Time: 0.008333
2.0855 36.3326 1.2014 6.4623 -26.6069 3.0645 -1.2144 -6.1183 0.1827 1.8152 2.0417 -0.9901 18.1908 2.9090 -2.0899 -1.8578 -31.2250 -57.0242 -35.3541 -0.0000 -177.8984 0.0012 0.1825 -0.3632 32.8623 0.0000 24.3270 -14.8416 2.9399 -9.0914 -14.5398 -6.0043 40.8601 70.2631 0.0000 -0.0918 -12.8345 -11.3203 -49.2522 33.1476 -0.0000 -26.2537 -10.6714 12.7502 -7.5158 20.9788 -0.0000 -0.0000 -19.3167 2.0655 5.6044 3.1423 -0.0000 -0.0000 -58.4908 -14.1272 -17.9877 80.9807 -0.0000 -0.0000 -1.0282 -16.2291 25.8283 14.1353 -0.0000 -0.0000
2.0918 36.3313 1.2033 6.4823 -26.5948 3.0731 -1.2388 -6.1437 0.1740 1.8282 2.0706 -0.9874 18.1804 2.9012 -2.0777 -1.8741 -31.2337 -57.0092 -35.3693 0.0000 -177.9218 0.0008 0.1484 -0.3044 32.8623 0.0000 24.3270 -14.8614 2.9106 -9.1223 -14.5242 -6.0567 40.8920 70.2213 -0.0000 -0.1656 -12.5630 -11.1634 -49.0165 33.1476 -0.0000 -26.2537 -10.6929 12.7055 -7.5301 20.9865 -0.0000 -0.0000 -19.3206 2.0797 5.6275 3.1257 -0.0000 -0.0000 -58.4961 -14.1808 -17.9275 80.9920 -0.0000 -0.0000 -1.0566 -16.2865 25.7343 14.3763 -0.0000 -0.0000
2.0981 36.3294 1.2052 6.4933 -26.5908 3.0802 -1.2504 -6.1688 0.1652 1.8397 2.0891 -0.9853 18.1593 2.8803 -2.0694 -1.8305 -31.2789 -56.9462 -35.3820 -0.0000 -178.0738 0.0006 0.1383 -0.2333 32.8623 0.0000 24.3270 -14.8479 2.8842 -9.1115 -14.5450 -6.0790 40.8617 70.1909 0.0000 -0.2243 -12.4525 -11.1129 -48.8845 33.1476 -0.0000 -26.2537 -10.6993 12.7268 -7.5511 20.9741 -0.0000 -0.0000 -19.3356 2.1196 5.6343 3.1700 -0.0000 -0.0000 -58.4690 -14.1567 -17.8633 81.0060 -0.0000 -0.0000 -1.0252 -16.1733 25.8566 14.1678 -0.0000 -0.0000
2.1040 36.3270 1.2065 6.5160 -26.6026 3.0977 -1.2762 -6.1976 0.1392 1.8441 2.1238 -0.9636 18.1654 2.8860 -2.0515 -1.8426 -31.2990 -56.9175 -35.3824 0.0000 -178.0346 0.0006 0.1734 -0.1984 32.8623 0.0000 24.3270 -14.8360 2.8653 -9.1000 -14.5509 -6.0766 40.8482 70.1523 0.0000 -0.3141 -12.3898 -11.0570 -48.8778 33.1476 -0.0000 -26.2537 -10.7149 12.7426 -7.5690 20.9693 -0.0000 -0.0000 -19.3451 2.1448 5.6535 3.1349 -0.0000 -0.0000 -58.4588 -14.1676 -17.7841 81.0106 -0.0000 -0.0000 -1.1358 -16.1221 25.6016 14.4594 -0.0000 -0.0000
2.1096 36.3244 1.2073 6.5348 -26.6130 3.1147 -1.2961 -6.2229 0.1086 1.8494 2.1384 -0.9391 18.1570 2.8815 -2.0414 -1.8076 -31.3300 -56.8539 -35.4113 0.0000 -178.0140 0.0007 0.1960 -0.1999 32.8623 0.0000 24.3270 -14.8149 2.8440 -9.0911 -14.5723 -6.1267 40.8489 70.1560 0.0000 -0.3634 -12.2133 -11.0223 -48.5456 33.1476 -0.0000 -26.2537 -10.7279 12.7744 -7.5858 20.9729 -0.0000 -0.0000 -19.3599 2.1517 5.6806 3.1357 -0.0000 -0.0000 -58.4352 -14.1759 -17.7162 81.0080 -0.0000 -0.0000 -1.1132 -16.0612 25.7133 14.4994 -0.0000 -0.0000
2.1146 36.3214 1.2087 6.5510 -26.6287 3.1300 -1.3112 -6.2538 0.0782 1.8448 2.1541 -0.9073 18.1704 2.8883 -2.0400 -1.7811 -31.3651 -56.7835 -35.4561 -0.0000 -177.9948 0.0006 0.1645 -0.2222 32.8623 0.0000 24.3270 -14.7997 2.8193 -9.0855 -14.5926 -6.1507 40.8658 70.1588 0.0000 -0.4344 -12.0897 -10.9813 -48.3522 33.1476 -0.0000 -26.2537 -10.7438 12.7703 -7.5963 20.9928 -0.0000 -0.0000 -19.3840 2.1303 5.7188 3.1357 -0.0000 -0.0000 -58.4024 -14.2048 -17.6511 80.9940 -0.0000 -0.0000 -1.1275 -15.9697 25.7708 14.4920 -0.0000 -0.0000
2.1209 36.3181 1.2091 6.5676 -26.6416 3.1487 -1.3227 -6.2886 0.0440 1.8365 2.1546 -0.8734 18.2056 2.8856 -2.0425 -1.7516 -31.4459 -56.6824 -35.4949 0.0000 -178.0685 0.0001 0.0609 -0.1184 32.8623 0.0000 24.3270 -14.7910 2.8156 -8.9757 -14.5466 -6.1011 40.6740 70.2301 -0.0000 -0.6220 -12.1005 -10.9809 -48.3795 33.1476 -0.0000 -26.2537 -10.7500 12.8446 -7.6083 20.9964 -0.0000 -0.0000 -19.3989 2.0907 5.7073 3.1873 -0.0000 -0.0000 -58.3729 -14.2425 -17.6054 80.9767 -0.0000 -0.0000 -1.1396 -15.9087 25.8241 14.5173 -0.0000 -0.0000
2.1275 36.3153 1.2103 6.5875 -26.6612 3.1790 -1.3413 -6.3301 -0.0110 1.8363 2.1643 -0.8110 18.2235 2.8758 -2.0316 -1.7051 -31.5194 -56.5958 -35.4786 -0.0000 -178.0840 0.0001 0.1466 -0.0537 32.8623 0.0000 24.3270 -14.7735 2.8026 -8.9497 -14.5615 -6.0975 40.6830 70.2562 0.0000 -0.6759 -12.1067 -10.9751 -48.4095 33.1476 -0.0000 -26.2537 -10.7489 12.9386 -7.6368 20.9773 -0.0000 -0.0000 -19.4188 2.0873 5.7086 3.2029 -0.0000 -0.0000 -58.3393 -14.2819 -17.5698 80.9618 -0.0000 -0.0000 -1.1349 -15.8406 25.8868 14.5120 -0.0000 -0.0000
2.1339 36.3117 1.2108 6.6028 -26.6897 3.2068 -1.3577 -6.3706 -0.0670 1.8523 2.1643 -0.7500 18.2496 2.8569 -2.0184 -1.6574 -31.5872 -56.5141 -35.4645 -0.0000 -178.1061 0.0001 0.2028 -0.0393 32.8623 0.0000 24.3270 -14.7410 2.7903 -8.9210 -14.5525 -6.0456 40.6601 70.2659 0.0000 -0.7291 -12.1073 -10.9470 -48.4829 33.1476 -0.0000 -26.2537 -10.7476 12.9867 -7.6630 20.9659 -0.0000 -0.0000 -19.4327 2.0807 5.7306 3.1950 -0.0000 -0.0000 -58.3030 -14.3301 -17.5348 80.9566 -0.0000 -0.0000 -1.1779 -15.7166 25.8199 14.4976 -0.0000 -0.0000
2.1409 36.3085 1.2106 6.6199 -26.7258 3.2434 -1.3593 -6.4056 -0.1394 1.8278 2.1496 -0.6684 18.2778 2.8648 -2.0012 -1.6449 -31.6578 -56.4488 -35.4477 0.0000 -178.0765 0.0001 0.2228 -0.0197 32.8623 0.0000 24.3270 -14.7339 2.7652 -8.9198 -14.5679 -6.0345 40.7223 70.2636 0.0000 -0.6763 -12.0841 -10.9460 -48.4292 33.1476 -0.0000 -26.2537 -10.7475 13.0310 -7.6920 20.9634 -0.0000 -0.0000 -19.4469 2.0428 5.7842 3.2315 -0.0000 -0.0000 -58.2513 -14.3539 -17.5028 80.9418 -0.0000 -0.0000 -1.1412 -15.6149 25.9780 14.3809 -0.0000 -0.0000
2.1462 36.3045 1.2102 6.6285 -26.7654 3.2560 -1.3578 -6.4360 -0.1858 1.8338 2.1052 -0.6031 18.2862 2.8489 -1.9725 -1.5870 -31.7199 -56.3902 -35.4552 -0.0000 -178.0728 0.0002 0.1377 -0.0768 32.8623 0.0000 24.3270 -14.7263 2.7564 -8.9145 -14.5588 -6.0267 40.7597 70.2975 0.0000 -0.7009 -12.0638 -10.9795 -48.2941 33.1476 -0.0000 -26.2537 -10.7541 13.1349 -7.6933 20.9866 -0.0000 -0.0000 -19.5446 2.0055 5.6191 3.4806 -0.0000 -0.0000 -58.1894 -14.4234 -17.4635 80.9297 -0.0000 -0.0000 -1.1608 -15.5760 26.0521 14.6592 -0.0000 -0.0000
2.1531 36.3008 1.2110 6.6336 -26.8074 3.3065 -1.3673 -6.4898 -0.2986 1.8678 2.0911 -0.4855 18.3199 2.8691 -1.9368 -1.5537 -31.8200 -56.3171 -35.4201 0.0000 -178.0880 0.0001 0.0740 -0.1112 32.8623 0.0000 24.3270 -14.6822 2.7647 -8.8829 -14.5944 -6.0190 40.8011 70.2873 0.0000 -0.7349 -12.0340 -10.9667 -48.2543 33.1476 -0.0000 -26.2537 -10.7277 13.2552 -7.7441 20.9604 -0.0000 -0.0000 -19.4878 1.9959 5.7405 3.2464 -0.0000 -0.0000 -58.1271 -14.4531 -17.4651 80.9381 -0.0000 -0.0000 -1.1735 -15.4737 26.1212 14.4387 -0.0000 -0.0000
2.1622 36.2980 1.2126 6.6358 -26.8663 3.3768 -1.3576 -6.5077 -0.4300 1.8359 2.0019 -0.3925 18.3219 2.8743 -1.9013 -1.5177 -31.8935 -56.2569 -35.3758 -0.0000 -178.0714 0.0001 0.0786 -0.0468 32.8623 0.0000 24.3270 -14.6445 2.7346 -8.8629 -14.6407 -5.9921 40.8477 70.2856 0.0000 -0.7856 -12.0327 -10.9724 -48.2365 33.1476 -0.0000 -26.2537 -10.6786 13.3244 -7.8221 20.8987 -0.0000 -0.0000 -19.4726 2.0175 5.7316 3.2478 -0.0000 -0.0000 -58.0636 -14.4681 -17.4815 80.9434 -0.0000 -0.0000 -1.1699 -15.4155 26.2232 14.3186 -0.0000 -0.0000
2.1653 36.2936 1.2117 6.6379 -26.9388 3.3852 -1.3410 -6.5134 -0.4947 1.8318 1.9107 -0.2915 18.3012 2.8629 -1.8545 -1.4701 -31.9200 -56.2328 -35.3565 0.0000 -178.0989 0.0000 0.0342 0.0607 32.8623 0.0000 24.3270 -14.6296 2.7170 -8.8428 -14.6479 -5.9642 40.8732 70.2941 -0.0000 -0.8486 -11.9756 -10.9489 -48.1573 33.1476 -0.0000 -26.2537 -10.6902 13.6155 -7.7831 21.0000 -0.0000 -0.0000 -19.5211 1.8255 5.7273 3.2277 -0.0000 -0.0000 -57.9816 -14.5620 -17.4578 80.9571 -0.0000 -0.0000 -1.1750 -15.3467 26.1697 14.4847 -0.0000 -0.0000
2.1711 36.2888 1.2130 6.6157 -26.9949 3.4216 -1.3025 -6.5381 -0.6137 1.8585 1.8111 -0.1550 18.2968 2.8528 -1.7946 -1.4430 -31.9451 -56.2122 -35.3305 -0.0000 -178.0657 0.0000 0.0144 0.0700 32.8623 0.0000 24.3270 -14.5819 2.6716 -8.8309 -14.6977 -5.9181 40.9266 70.2670 0.0000 -0.9688 -11.9105 -10.9761 -47.9276 33.1476 -0.0000 -26.2537 -10.6522 13.7140 -7.8203 21.0076 -0.0000 -0.0000 -19.5510 1.8042 5.6983 3.2475 -0.0000 -0.0000 -57.8902 -14.6297 -17.4953 81.0018 -0.0000 -0.0000 -1.2134 -15.3103 26.3015 14.6506 -0.0000 -0.0000
2.1781 36.2847 1.2140 6.5952 -27.0753 3.4418 -1.2501 -6.5511 -0.6983 1.8352 1.7036 -0.0567 18.2817 2.8571 -1.7603 -1.4379 -31.9750 -56.1979 -35.2682 0.0000 -178.0063 -0.0001 0.0479 0.1238 32.8623 0.0000 24.3270 -14.5818 2.6587 -8.8263 -14.7097 -5.8393 40.9863 70.2349 0.0000 -0.9187 -12.0452 -11.0597 -48.0442 33.1476 -0.0000 -26.2537 -10.6141 13.8597 -7.8340 21.0152 -0.0000 -0.0000 -19.5803 1.7531 5.6666 3.2564 -0.0000 -0.0000 -57.7935 -14.7108 -17.5163 81.0554 -0.0000 -0.0000 -1.2317 -15.2630 26.3492 14.3750 -0.0000 -0.0000
2.1846 36.2798 1.2148 6.5778 -27.1417 3.4680 -1.2086 -6.5879 -0.7946 1.8270 1.6010 0.0408 18.2799 2.8625 -1.7140 -1.3931 -32.0163 -56.1724 -35.2411 -0.0000 -178.0793 -0.0001 0.0594 0.0640 32.8623 0.0000 24.3270 -14.5918 2.6481 -8.8151 -14.7035 -5.7579 41.0450 70.2016 0.0000 -0.9926 -12.0080 -11.0445 -47.9923 33.1476 -0.0000 -26.2537 -10.5781 14.0083 -7.8528 21.0245 -0.0000 -0.0000 -19.6095 1.7007 5.6411 3.2609 -0.0000 -0.0000 -57.7187 -14.8266 -17.5853 81.1548 -0.0000 -0.0000 -1.2549 -15.2590 26.2024 14.2760 -0.0000 -0.0000
2.1914 36.2742 1.2153 6.5606 -27.1995 3.4917 -1.1663 -6.6167 -0.8933 1.8205 1.4314 0.1432 18.2653 2.8352 -1.6540 -1.3608 -31.9889 -56.1755 -35.2349 -0.0000 -178.0337 -0.0001 0.0727 0.0877 32.8623 0.0000 24.3270 -14.5737 2.5981 -8.8034 -14.7361 -5.6535 41.0969 70.1553 0.0000 -1.0698 -11.9078 -11.0083 -47.8384 33.1476 -0.0000 -26.2537 -10.5482 14.1892 -7.8640 21.0543 -0.0000 -0.0000 -19.6514 1.6071 5.6091 3.3283 -0.0000 -0.0000 -57.6496 -14.9347 -17.6787 81.2751 -0.0000 -0.0000 -1.2788 -15.2781 26.3023 14.4489 -0.0000 -0.0000
2.2000 36.2688 1.2142 6.5753 -27.2556 3.5244 -1.1526 -6.6866 -0.9848 1.8145 1.2589 0.2362 18.2627 2.8528 -1.6158 -1.3435 -31.9514 -56.1879 -35.2372 -0.0000 -178.0204 -0.0001 0.0604 0.0736 32.8623 0.0000 24.3270 -14.5777 2.6023 -8.7462 -14.7524 -5.5635 41.1023 70.1327 -0.0000 -1.1767 -11.7800 -10.9542 -47.6607 33.1476 -0.0000 -26.2537 -10.5330 14.4961 -7.8578 21.0805 -0.0000 -0.0000 -19.6856 1.4064 5.5889 3.2666 -0.0000 -0.0000 -57.6345 -15.1070 -17.8063 81.4296 -0.0000 -0.0000 -1.3148 -15.3112 26.3315 14.4459 -0.0000 -0.0000
2.2086 36.2622 1.2155 6.5803 -27.3366 3.5500 -1.1253 -6.7117 -1.0576 1.8043 1.0442 0.2927 18.2591 2.8495 -1.5942 -1.3158 -31.9233 -56.1792 -35.2325 -0.0000 -178.0418 -0.0003 0.0791 0.1829 32.8623 0.0000 24.3270 -14.6221 2.6018 -8.7046 -14.7183 -5.4624 41.0951 70.1293 -0.0000 -1.3047 -11.6286 -10.8393 -47.5782 33.1476 -0.0000 -26.2537 -10.5321 14.6556 -7.8650 21.1238 -0.0000 -0.0000 -19.7483 1.3840 5.5636 3.3489 -0.0000 -0.0000 -57.6233 -15.2764 -17.9361 81.6379 -0.0000 -0.0000 -1.3559 -15.3806 26.2674 14.3783 -0.0000 -0.0000
